<svg xmlns="http://www.w3.org/2000/svg" viewBox="0 0 19.7 20.44"><path id="_复合路径_" data-name="&lt;复合路径&gt;" class="cls-1" d="M19.67,9.06a.34.34,0,0,0,0-.28.36.36,0,0,0-.08-.12L15.13,4.2a.37.37,0,0,0-.53,0,.37.37,0,0,0,0,.52l3.83,3.83h-8a.36.36,0,0,0-.36.37.37.37,0,0,0,.36.37h8L14.6,13.12a.37.37,0,0,0,0,.52.39.39,0,0,0,.27.11.38.38,0,0,0,.26-.11l4.46-4.46a.36.36,0,0,0,.08-.12Z"/><path id="_复合路径_2" data-name="&lt;复合路径&gt;" class="cls-1" d="M13,10.78a.36.36,0,0,0-.37.37v6H8.92V3a.38.38,0,0,0-.26-.35L2.77.74h9.87v6a.36.36,0,0,0,.37.37.37.37,0,0,0,.37-.37V.37A.38.38,0,0,0,13,0H.28l-.1,0h0l0,0,0,0A.36.36,0,0,0,0,.22v0A.31.31,0,0,0,0,.37v17.1a.31.31,0,0,0,0,.13l0,0,.05.07,0,0a.18.18,0,0,0,.07.05l0,0h0l8.18,2.6.11,0a.47.47,0,0,0,.22-.07.38.38,0,0,0,.15-.3V17.84H13a.38.38,0,0,0,.37-.37V11.15a.37.37,0,0,0-.37-.37ZM8.18,19.56.74,17.2V.88L8.18,3.24Z"/></svg>
