<svg xmlns="http://www.w3.org/2000/svg" viewBox="0 0 14.22 16.43"><path d="M13.83,1.55H9.41V.77A.76.76,0,0,0,8.65,0H5.57A.77.77,0,0,0,4.8.77v.78H.39a.39.39,0,1,0,0,.77H1.1l.49,12.73A1.44,1.44,0,0,0,3,16.43h8.14a1.44,1.44,0,0,0,1.45-1.38l.48-12.73h.72a.39.39,0,1,0,0-.77ZM5.58.77H8.64v.78H5.58ZM11.85,15a.66.66,0,0,1-.67.64H3A.66.66,0,0,1,2.37,15L1.88,2.32H12.34Z"/><path id="_路径_" data-name="&lt;路径&gt;" class="cls-2" d="M4.37,5.45h0A.39.39,0,0,0,4,5.84l.12,6.31a.39.39,0,0,0,.39.38h0a.39.39,0,0,0,.38-.39L4.75,5.83A.38.38,0,0,0,4.37,5.45Z"/><path id="_路径_2" data-name="&lt;路径&gt;" class="cls-2" d="M7.11,5.45a.39.39,0,0,0-.39.39v6.31a.39.39,0,0,0,.78,0V5.84A.39.39,0,0,0,7.11,5.45Z"/><path id="_路径_3" data-name="&lt;路径&gt;" class="cls-2" d="M9.72,12.53h0a.39.39,0,0,0,.39-.38l.12-6.31a.39.39,0,0,0-.78,0l-.12,6.31A.39.39,0,0,0,9.72,12.53Z"/></svg>