<svg xmlns="http://www.w3.org/2000/svg" viewBox="0 0 17.97 22.37"><path id="_复合路径_" data-name="&lt;复合路径&gt;" class="cls-1" d="M16.31,22.37H5.71a1.66,1.66,0,0,1-1.66-1.66V6A1.66,1.66,0,0,1,5.71,4.28h10.6A1.67,1.67,0,0,1,18,6V20.71A1.66,1.66,0,0,1,16.31,22.37ZM5.71,5a1,1,0,0,0-1,1V20.71a1,1,0,0,0,1,.95h10.6a1,1,0,0,0,1-.95V6a1,1,0,0,0-1-1Z"/><path id="_路径_" data-name="&lt;路径&gt;" class="cls-1" d="M3.21,18.09H1.67A1.67,1.67,0,0,1,0,16.43V1.67A1.67,1.67,0,0,1,1.67,0H12.26a1.67,1.67,0,0,1,1.67,1.67V3.28h-.72V1.67a1,1,0,0,0-1-1H1.67a1,1,0,0,0-1,1V16.43a1,1,0,0,0,1,.95H3.21Z"/></svg>