<svg xmlns="http://www.w3.org/2000/svg" viewBox="0 0 17.12 22.26"><defs></defs><title>资源 15</title><g id="图层_2" data-name="图层 2"><g id="图层_1-2" data-name="图层 1"><g id="_编组_" data-name="&lt;编组&gt;"><path id="_复合路径_" data-name="&lt;复合路径&gt;" class="cls-1" d="M16.64,5.25a.47.47,0,0,0-.48.48V21.29H1V2.78h9a.49.49,0,0,0,0-1H.48A.49.49,0,0,0,0,2.29V21.77a.49.49,0,0,0,.48.49H16.64a.48.48,0,0,0,.48-.49v-16a.47.47,0,0,0-.48-.48Z"/></g><path id="_复合路径_2" data-name="&lt;复合路径&gt;" class="cls-1" d="M12.87,1.69,5.2,9.37a.38.38,0,0,0-.13.22l-.66,2.53a.49.49,0,0,0,.47.61l.12,0,2.54-.65a.61.61,0,0,0,.22-.13l7.68-7.68h0L17,2.71A.49.49,0,0,0,17,2L15.1.14a.48.48,0,0,0-.68,0L12.87,1.69Zm-5.7,9.46-1.62.42L6,10l7.25-7.25,1.19,1.2Zm7.59-10L16,2.36l-.87.86L13.9,2Z"/></g></g></svg>