<svg xmlns="http://www.w3.org/2000/svg" viewBox="0 0 25.77 30.19"><path id="_复合路径_" data-name="&lt;复合路径&gt;" class="cls-1" d="M22.44,30.19H3.32A3.32,3.32,0,0,1,0,26.87V3.32A3.32,3.32,0,0,1,3.32,0H22.44a3.33,3.33,0,0,1,3.33,3.32V26.87A3.33,3.33,0,0,1,22.44,30.19ZM3.32.59A2.73,2.73,0,0,0,.59,3.32V26.87a2.74,2.74,0,0,0,2.73,2.74H22.44a2.74,2.74,0,0,0,2.74-2.74V3.32A2.74,2.74,0,0,0,22.44.59Z"/><path id="_复合路径_2" data-name="&lt;复合路径&gt;" class="cls-1" d="M21.7,27.67h-3v-.59h3Zm-5.93,0h-3v-.59h3Zm-5.93,0h-3v-.59h3Zm-5.95,0a1.91,1.91,0,0,1-1.75-1.91V25.2h.59v.55a1.32,1.32,0,0,0,1.21,1.33Zm19.68-1.45L23,26.07a1.66,1.66,0,0,0,0-.32V23.18h.59v2.57A2.31,2.31,0,0,1,23.57,26.21Zm-20.84-4H2.14v-3h.59Zm20.89-2H23v-3h.59ZM2.73,16.3H2.14v-3h.59Zm20.89-2H23v-3h.59ZM2.73,10.38H2.14v-3h.59Zm20.89-2H23v-3h.59ZM2.14,4.45h0A1.93,1.93,0,0,1,4.06,2.52h.4v.59h-.4A1.34,1.34,0,0,0,2.73,4.44Zm20-1.27a1.31,1.31,0,0,0-.44-.07H19.28V2.52H21.7a1.9,1.9,0,0,1,.63.11Zm-5.82-.07h-3V2.52h3Zm-5.93,0h-3V2.52h3Z"/></svg>
