<svg xmlns="http://www.w3.org/2000/svg" viewBox="0 0 38.4 38.4"><title>资源 3</title><g id="图层_2" data-name="图层 2"><g id="menu_Nav_上边菜单" data-name="menu Nav 上边菜单"><g id="_编组_" data-name="&lt;编组&gt;"><path id="_路径_" data-name="&lt;路径&gt;" class="cls-1" d="M29.6,38.4H12A2.4,2.4,0,0,1,9.6,36V27.2h1.6V36a.8.8,0,0,0,.8.8H29.6a.8.8,0,0,0,.8-.8V18.4H32V36A2.41,2.41,0,0,1,29.6,38.4Z"/><path id="_路径_2" data-name="&lt;路径&gt;" class="cls-1" d="M15.2,28H8V26.4h7.2a1.6,1.6,0,1,0,0-3.2H8a4,4,0,0,0-4,4H2.4A5.6,5.6,0,0,1,8,21.6h7.2a3.2,3.2,0,0,1,0,6.4Z"/><path id="_路径_3" data-name="&lt;路径&gt;" class="cls-1" d="M4,25.6H0v-.8A.8.8,0,0,1,.8,24H4Z"/><path id="_路径_4" data-name="&lt;路径&gt;" class="cls-1" d="M10.4,36.8H8a5.6,5.6,0,0,1-5.6-5.6H4a4,4,0,0,0,4,4h2.4Z"/><path id="_路径_5" data-name="&lt;路径&gt;" class="cls-1" d="M4,34.4H.8a.8.8,0,0,1-.8-.8v-.8H4Z"/><path id="_路径_6" data-name="&lt;路径&gt;" class="cls-1" d="M32,8H24.8a3.2,3.2,0,0,1,0-6.4h5.6A5.6,5.6,0,0,1,36,7.2H34.4a4,4,0,0,0-4-4H24.8a1.6,1.6,0,0,0,0,3.2H32Z"/><path id="_路径_7" data-name="&lt;路径&gt;" class="cls-1" d="M38.4,5.6h-4V4h3.2a.8.8,0,0,1,.8.8Z"/><path id="_路径_8" data-name="&lt;路径&gt;" class="cls-1" d="M30.4,16.8H24.8V15.2h5.6a4,4,0,0,0,4-4H36A5.6,5.6,0,0,1,30.4,16.8Z"/><path id="_路径_9" data-name="&lt;路径&gt;" class="cls-1" d="M37.6,14.4H34.4V12.8h4v.8A.8.8,0,0,1,37.6,14.4Z"/><path id="_路径_10" data-name="&lt;路径&gt;" class="cls-1" d="M19.2,19.2A9.6,9.6,0,1,1,24.43,1.55l-.87,1.34A8,8,0,1,0,26.9,7.42L28.44,7A9.6,9.6,0,0,1,19.2,19.2Z"/><path id="_路径_11" data-name="&lt;路径&gt;" class="cls-1" d="M20.8,10.4H17.6a2.4,2.4,0,0,1,0-4.8h3.2V7.2H17.6a.8.8,0,1,0,0,1.6h3.2Z"/><path id="_路径_12" data-name="&lt;路径&gt;" class="cls-1" d="M20.8,13.6H17.6a2.39,2.39,0,0,1-2.4-2.4h1.6a.8.8,0,0,0,.8.8h3.2a.8.8,0,0,0,0-1.6H17.6V8.8h3.2a2.4,2.4,0,0,1,0,4.8Z"/><path id="_路径_13" data-name="&lt;路径&gt;" class="cls-1" d="M18.4,12.8H20v2.4H18.4Z"/><path id="_路径_14" data-name="&lt;路径&gt;" class="cls-1" d="M18.4,4H20V6.4H18.4Z"/><path id="_路径_15" data-name="&lt;路径&gt;" class="cls-1" d="M11.2,22.4H9.6V19.2A2.39,2.39,0,0,1,12,16.8h3.2v1.6H12a.8.8,0,0,0-.8.8Z"/><path id="_路径_16" data-name="&lt;路径&gt;" class="cls-1" d="M13.6,17.6h1.6v4.8H13.6Z"/><path id="_路径_17" data-name="&lt;路径&gt;" class="cls-1" d="M20,25.6H17.6V24h1.6V18.4h1.6v6.4A.8.8,0,0,1,20,25.6Z"/><path id="_路径_18" data-name="&lt;路径&gt;" class="cls-1" d="M24,33.6h4.8v1.6H24Z"/><path id="_路径_19" data-name="&lt;路径&gt;" class="cls-1" d="M24,30.4h4.8V32H24Z"/></g></g></g></svg>
