<svg xmlns="http://www.w3.org/2000/svg" viewBox="0 0 18.93 18.93"><path id="_路径_" data-name="&lt;路径&gt;" class="cls-1" d="M13,5.94c-.13-.13-.27-.25-.41-.37L10.18,8a2,2,0,0,1,.46.32,1.67,1.67,0,0,1,0,2.36L6.17,15.12a1.67,1.67,0,0,1-2.36-2.36l.33-.33a6.14,6.14,0,0,1-.68-4l-2,2a5,5,0,0,0,7.06,7.06L13,13A5,5,0,0,0,13,5.94Z"/><path id="_路径_2" data-name="&lt;路径&gt;" class="cls-1" d="M5.94,13a5,5,0,0,0,.42.37L8.75,11a2,2,0,0,1-.46-.32,1.68,1.68,0,0,1,0-2.35l4.47-4.48a1.67,1.67,0,0,1,2.36,2.36l2.35,2.35a5,5,0,0,0-7.06-7.06L5.94,5.93A5,5,0,0,0,5.94,13Z"/></svg>
