<svg xmlns="http://www.w3.org/2000/svg" viewBox="0 0 28.63 39.3"><defs></defs><title>资源 13</title><g id="图层_2" data-name="图层 2"><g id="Estrutura_Menu左边菜单" data-name="Estrutura Menu左边菜单"><g id="Menu_Lateral" data-name="Menu Lateral"><g id="_编组_" data-name="&lt;编组&gt;" class="cls-1"><rect id="_路径_" data-name="&lt;路径&gt;" class="cls-2" x="11.36" y="10.28" width="10.88" height="1.4"/><rect id="_路径_2" data-name="&lt;路径&gt;" class="cls-2" x="11.36" y="13.78" width="10.88" height="1.4"/><rect id="_路径_3" data-name="&lt;路径&gt;" class="cls-2" x="11.36" y="20.78" width="10.88" height="1.4"/><rect id="_路径_4" data-name="&lt;路径&gt;" class="cls-2" x="11.27" y="27.79" width="10.88" height="1.4"/><rect id="_路径_5" data-name="&lt;路径&gt;" class="cls-2" x="11.27" y="24.28" width="10.88" height="1.4"/><rect id="_路径_6" data-name="&lt;路径&gt;" class="cls-2" x="11.27" y="17.28" width="10.88" height="1.4"/><rect id="_路径_7" data-name="&lt;路径&gt;" class="cls-2" x="11.36" y="31.29" width="10.88" height="1.4"/><path id="_复合路径_" data-name="&lt;复合路径&gt;" class="cls-2" d="M21.3,2.54V0h-14V2.54H0V39.3H28.63V2.54Zm0,5.77V7.09h2.93V34.75H4.4V7.09H7.33V8.31ZM8.73,1.4H19.9V6.91H8.73Zm18.5,36.5H1.4v-34H7.33V5.69H3V36.15H25.63V5.69H21.3V3.94h5.93Z"/><rect id="_路径_8" data-name="&lt;路径&gt;" class="cls-2" x="10.91" y="3.46" width="6.81" height="1.4"/><path id="_复合路径_2" data-name="&lt;复合路径&gt;" class="cls-2" d="M5.21,12.13l2.28,2.28,3-3-1-1-2,2L6.2,11.14Z"/><path id="_复合路径_3" data-name="&lt;复合路径&gt;" class="cls-2" d="M7.49,21.35,6.2,20.06l-1,1,2.28,2.28,3-3-1-1Z"/><path id="_复合路径_4" data-name="&lt;复合路径&gt;" class="cls-2" d="M9.24,27.75,7.85,29.14,6.46,27.75l-1,1,1.39,1.39L5.47,31.51l1,1,1.39-1.38L9.24,32.5l1-1L8.84,30.13l1.39-1.39Z"/></g></g></g></g></svg>