<svg xmlns="http://www.w3.org/2000/svg" viewBox="0 0 31.77 23.73"><defs><style>.cls-1{fill:#fff;}</style></defs><title>资源 1</title><g id="图层_2" data-name="图层 2"><g id="图层_1-2" data-name="图层 1"><g id="_编组_" data-name="&lt;编组&gt;"><path id="_复合路径_" data-name="&lt;复合路径&gt;" class="cls-1" d="M31.77,21H0V0H31.77ZM.64,20.36h30.5V.64H.64Z"/></g><g id="_编组_2" data-name="&lt;编组&gt;"><g id="_编组_3" data-name="&lt;编组&gt;"><rect id="_矩形_" data-name="&lt;矩形&gt;" class="cls-1" x="14.61" y="3.98" width="1.02" height="13.41" rx="0.51" ry="0.51"/></g><g id="_编组_4" data-name="&lt;编组&gt;"><rect id="_矩形_2" data-name="&lt;矩形&gt;" class="cls-1" x="11.86" y="8.58" width="1.02" height="8.81" rx="0.51" ry="0.51"/></g><g id="_编组_5" data-name="&lt;编组&gt;"><rect id="_矩形_3" data-name="&lt;矩形&gt;" class="cls-1" x="9.27" y="10.5" width="1.02" height="6.88" rx="0.51" ry="0.51"/></g><g id="_编组_6" data-name="&lt;编组&gt;"><rect id="_矩形_4" data-name="&lt;矩形&gt;" class="cls-1" x="6.43" y="9.62" width="1.02" height="7.76" rx="0.51" ry="0.51"/></g><g id="_编组_7" data-name="&lt;编组&gt;"><rect id="_矩形_5" data-name="&lt;矩形&gt;" class="cls-1" x="3.75" y="13.16" width="1.02" height="4.23" rx="0.51" ry="0.51"/></g></g><g id="_编组_8" data-name="&lt;编组&gt;"><rect id="_矩形_6" data-name="&lt;矩形&gt;" class="cls-1" x="20.13" y="13.46" width="7.59" height="0.97" rx="0.49" ry="0.49"/></g><g id="_编组_9" data-name="&lt;编组&gt;"><rect id="_矩形_7" data-name="&lt;矩形&gt;" class="cls-1" x="20.13" y="16.22" width="7.59" height="0.97" rx="0.49" ry="0.49"/></g><g id="_编组_10" data-name="&lt;编组&gt;"><path id="_复合路径_2" data-name="&lt;复合路径&gt;" class="cls-1" d="M24,11.1a4,4,0,1,1,4-4A4,4,0,0,1,24,11.1Zm0-7.36A3.36,3.36,0,1,0,27.4,7.1,3.37,3.37,0,0,0,24,3.74Z"/></g><g id="_编组_11" data-name="&lt;编组&gt;"><path id="_路径_" data-name="&lt;路径&gt;" class="cls-1" d="M27.66,7.85l-3.41-.41a.48.48,0,0,1-.38-.25.5.5,0,0,1,0-.46l1.66-3L26.1,4,24.55,6.84l3.18.38Z"/></g><g id="_编组_12" data-name="&lt;编组&gt;"><rect id="_矩形_8" data-name="&lt;矩形&gt;" class="cls-1" x="9.78" y="22.86" width="12.05" height="0.87" rx="0.44" ry="0.44"/></g></g></g></svg>