<svg xmlns="http://www.w3.org/2000/svg" viewBox="0 0 35 28.41"><path id="_复合路径_" data-name="&lt;复合路径&gt;" class="cls-1" d="M8.39,0A2.6,2.6,0,0,0,5.8,2.59V17.52a2.6,2.6,0,0,0,2.59,2.59H25l3.75,3.78a.8.8,0,0,0,.57.26.83.83,0,0,0,.83-.84v-3.2h2.31A2.6,2.6,0,0,0,35,17.52V2.59A2.6,2.6,0,0,0,32.41,0Zm3.2,12.79a2.32,2.32,0,0,1-1.74-1.44A2.41,2.41,0,0,1,12.9,8.18a2.36,2.36,0,0,1,1.5,1.66A2.4,2.4,0,0,1,11.59,12.79Zm8.91.05a2.4,2.4,0,1,1,2.4-2.4A2.42,2.42,0,0,1,20.5,12.84Zm8.39,0a2.4,2.4,0,1,1,2.4-2.4A2.41,2.41,0,0,1,28.89,12.84Z"/><path id="_路径_" data-name="&lt;路径&gt;" class="cls-1" d="M1.7,25.75H3.2v2.11a.57.57,0,0,0,.55.55.53.53,0,0,0,.38-.16L6.6,25.78H17.49a1.7,1.7,0,0,0,1.69-1.7V21.65H8.39a4.07,4.07,0,0,1-4.07-4.07V12.49H1.7A1.7,1.7,0,0,0,0,14.19V24A1.69,1.69,0,0,0,1.7,25.75Z"/></svg>