<svg id="图层_1" data-name="图层 1" xmlns="http://www.w3.org/2000/svg" viewBox="0 0 36.5 38.2"><defs><style>.cls-1{fill:#999;}</style></defs><title>nazhong2</title><g id="_编组_" data-name="&lt;编组&gt;"><path id="_复合路径_" data-name="&lt;复合路径&gt;" class="cls-1" d="M675,354.1a7.07,7.07,0,1,0,7.06,7.07A7.08,7.08,0,0,0,675,354.1Zm0,12.29a5.22,5.22,0,1,1,5.22-5.22,5.22,5.22,0,0,1-5.22,5.22Zm0,0" transform="translate(-654.86 -344.51)"/><g id="_编组_2" data-name="&lt;编组&gt;"><path id="_复合路径_2" data-name="&lt;复合路径&gt;" class="cls-1" d="M662.55,367.32a7.7,7.7,0,1,0,7.69,7.7,7.71,7.71,0,0,0-7.69-7.7Zm0,13.75a6.06,6.06,0,1,1,6.06-6.05,6.06,6.06,0,0,1-6.06,6.05Zm0,0" transform="translate(-654.86 -344.51)"/><path id="_复合路径_3" data-name="&lt;复合路径&gt;" class="cls-1" d="M666.56,374.78H663.1v-4.16a.63.63,0,0,0-.63-.63.64.64,0,0,0-.64.63v4.79a.64.64,0,0,0,.64.64h4.09a.64.64,0,0,0,.63-.64.63.63,0,0,0-.63-.63Zm0,0" transform="translate(-654.86 -344.51)"/></g><path id="_路径_" data-name="&lt;路径&gt;" class="cls-1" d="M689.68,357.45l-2.3-.39a12.45,12.45,0,0,0-.92-2.23l1.35-1.9a2,2,0,0,0-.21-2.6l-2-2a2,2,0,0,0-1.43-.6,2,2,0,0,0-1.17.38l-1.9,1.35a13,13,0,0,0-2.32-.95l-.38-2.27a2,2,0,0,0-2-1.69h-2.88a2,2,0,0,0-2,1.69l-.4,2.33a12.71,12.71,0,0,0-2.22.93L667,348.11a2,2,0,0,0-1.17-.38,2,2,0,0,0-1.43.6l-2,2a2,2,0,0,0-.22,2.6l1.37,1.93a12.73,12.73,0,0,0-.91,2.23l-2.27.39a2,2,0,0,0-1.69,2v2.88a2,2,0,0,0,1.69,2l2.33.4c0,.11.18,1.24.22,1.35a7.53,7.53,0,0,1,2,.13,19.14,19.14,0,0,1-.65-2.53.92.92,0,0,0-.74-.68l-2.89-.49a.17.17,0,0,1-.15-.18v-2.88a.18.18,0,0,1,.15-.18l2.85-.47a1,1,0,0,0,.75-.69,10.84,10.84,0,0,1,1.17-2.87.93.93,0,0,0,0-1l-1.7-2.39a.18.18,0,0,1,0-.24l2-2a.21.21,0,0,1,.13-.05.18.18,0,0,1,.11,0l2.36,1.69a1,1,0,0,0,1,0,10.61,10.61,0,0,1,2.86-1.21.94.94,0,0,0,.68-.73l.49-2.9a.17.17,0,0,1,.18-.15h2.88a.16.16,0,0,1,.17.15l.48,2.85a.92.92,0,0,0,.69.75,11,11,0,0,1,2.93,1.2.91.91,0,0,0,1,0l2.36-1.69a.21.21,0,0,1,.1,0,.18.18,0,0,1,.13.06l2,2a.18.18,0,0,1,0,.23l-1.69,2.37a.93.93,0,0,0,0,1,11,11,0,0,1,1.19,2.86.9.9,0,0,0,.74.68l2.87.49a.17.17,0,0,1,.15.17v2.88h0a.17.17,0,0,1-.15.18l-2.87.48a.92.92,0,0,0-.74.68,10.69,10.69,0,0,1-1.19,2.86,1,1,0,0,0,0,1l1.69,2.38a.18.18,0,0,1,0,.23l-2,2a.16.16,0,0,1-.13.06.18.18,0,0,1-.1,0l-2.37-1.69a1,1,0,0,0-1,0,10.69,10.69,0,0,1-2.86,1.19.91.91,0,0,0-.68.74l-.49,2.87a.17.17,0,0,1-.18.15h-2.88a.17.17,0,0,1-.17-.15l-.48-2.87a.92.92,0,0,0-.68-.74,10.56,10.56,0,0,1-1.88-.68,8.74,8.74,0,0,1,1.21,4.59,2,2,0,0,0,2,1.69h2.88a2,2,0,0,0,2-1.69l.39-2.3a13.23,13.23,0,0,0,2.23-.92l1.9,1.35a2,2,0,0,0,2.6-.22l2-2a2,2,0,0,0,.22-2.6l-1.35-1.9a13.43,13.43,0,0,0,.92-2.23l2.3-.39a2,2,0,0,0,1.69-2v-2.88A2,2,0,0,0,689.68,357.45Z" transform="translate(-654.86 -344.51)"/></g></svg>