<svg xmlns="http://www.w3.org/2000/svg" viewBox="0 0 28.32 39.45"><defs><style>.cls-1{fill:#999;}.cls-2{fill:#fff;}</style></defs><title>资源 5</title><g id="图层_2" data-name="图层 2"><g id="图层_1-2" data-name="图层 1"><g id="_编组_" data-name="&lt;编组&gt;"><path id="_复合路径_" data-name="&lt;复合路径&gt;" class="cls-1" d="M4.84,0A4.84,4.84,0,1,0,9.68,4.84,4.84,4.84,0,0,0,4.84,0Z"/><g id="_编组_2" data-name="&lt;编组&gt;"><path id="_复合路径_2" data-name="&lt;复合路径&gt;" class="cls-1" d="M28.32,39.45H4V4.81H28.32ZM4.84,38.7H27.51V5.57H4.84Z"/></g><rect id="_矩形_" data-name="&lt;矩形&gt;" class="cls-1" x="9" y="10.52" width="13.96" height="0.92"/><rect id="_矩形_2" data-name="&lt;矩形&gt;" class="cls-1" x="6.1" y="14" width="20.15" height="0.99"/><rect id="_矩形_3" data-name="&lt;矩形&gt;" class="cls-1" x="6.1" y="15.73" width="20.15" height="0.99"/><rect id="_矩形_4" data-name="&lt;矩形&gt;" class="cls-1" x="6.1" y="17.47" width="20.15" height="0.99"/><rect id="_矩形_5" data-name="&lt;矩形&gt;" class="cls-1" x="6.1" y="19.2" width="20.15" height="0.99"/><rect id="_矩形_6" data-name="&lt;矩形&gt;" class="cls-1" x="6.1" y="22.67" width="20.15" height="0.99"/><rect id="_矩形_7" data-name="&lt;矩形&gt;" class="cls-1" x="6.1" y="24.41" width="20.15" height="0.99"/><rect id="_矩形_8" data-name="&lt;矩形&gt;" class="cls-1" x="6.1" y="26.14" width="20.15" height="0.99"/><rect id="_矩形_9" data-name="&lt;矩形&gt;" class="cls-1" x="6.1" y="27.88" width="20.15" height="0.99"/><rect id="_矩形_10" data-name="&lt;矩形&gt;" class="cls-1" x="6.1" y="30.48" width="20.15" height="0.99"/><rect id="_矩形_11" data-name="&lt;矩形&gt;" class="cls-1" x="6.1" y="32.22" width="20.15" height="0.99"/><g id="_编组_3" data-name="&lt;编组&gt;"><path id="_复合路径_3" data-name="&lt;复合路径&gt;" class="cls-2" d="M6,7,4.83,5.35,3.68,7h-.9L4.37,4.8,2.86,2.71h.9L4.85,4.23,5.93,2.71H6.8L5.3,4.77,6.91,7Z"/></g></g></g></g></svg>