<svg xmlns="http://www.w3.org/2000/svg" viewBox="0 0 44.08 32.24"><defs><style>.cls-1{fill:#999;}</style></defs><title>资源 4</title><g id="图层_2" data-name="图层 2"><g id="图层_1-2" data-name="图层 1"><g id="_编组_" data-name="&lt;编组&gt;"><g id="_编组_2" data-name="&lt;编组&gt;"><path id="_复合路径_" data-name="&lt;复合路径&gt;" class="cls-1" d="M38.55,27.35H5.69V3.92H38.55ZM6.62,26.42h31V4.86h-31Z"/></g><g id="_编组_3" data-name="&lt;编组&gt;"><path id="_复合路径_2" data-name="&lt;复合路径&gt;" class="cls-1" d="M41.67,29.91H2.57V26.45h39.1ZM3.5,29H40.73V27.38H3.5Z"/></g><g id="_编组_4" data-name="&lt;编组&gt;"><path id="_复合路径_3" data-name="&lt;复合路径&gt;" class="cls-1" d="M44.08,32.24H0V29H44.08ZM.93,31.31H43.15v-1.4H.93Z"/></g><g id="_编组_5" data-name="&lt;编组&gt;"><path id="_复合路径_4" data-name="&lt;复合路径&gt;" class="cls-1" d="M30.88,27.35H13.18V14.08h17.7Zm-16.76-.93H30V15H14.12Z"/></g><g id="_编组_6" data-name="&lt;编组&gt;"><rect id="_路径_" data-name="&lt;路径&gt;" class="cls-1" x="21.89" y="14.72" width="0.93" height="12.27"/></g><g id="_编组_7" data-name="&lt;编组&gt;"><rect id="_矩形_" data-name="&lt;矩形&gt;" class="cls-1" x="23.64" y="20.39" width="1.64" height="0.48"/></g><g id="_编组_8" data-name="&lt;编组&gt;"><rect id="_矩形_2" data-name="&lt;矩形&gt;" class="cls-1" x="19.2" y="20.39" width="1.64" height="0.48"/></g><g id="_编组_9" data-name="&lt;编组&gt;"><path id="_复合路径_5" data-name="&lt;复合路径&gt;" class="cls-1" d="M25.51,8.12l-1-1.22a.56.56,0,0,0-.45-.3h-.39l-2,0L22.9,8.11a.26.26,0,0,1,.05.22L21.73,9.91l2.2,0h0a.76.76,0,0,0,.61-.28l.9-1.14A.34.34,0,0,0,25.51,8.12ZM22,6.78l1.72,0a.31.31,0,0,1,.22.12.29.29,0,0,1,0,.16s0,0,0,0l-.84,1.1A.34.34,0,0,0,23,8Zm3.38,1.67-.91,1.14a.61.61,0,0,1-.53.23L22,9.78l2-2.64h0s0,0,0-.08a.34.34,0,0,0,0-.18h0A.54.54,0,0,0,24,6.73h.1s.18,0,.34.25l1,1.21A.25.25,0,0,1,25.37,8.45Z"/><path id="_复合路径_6" data-name="&lt;复合路径&gt;" class="cls-1" d="M24,10.07h0l-2.44,0,1.35-1.75a.12.12,0,0,0,0-.09L21.47,6.54l2.63-.06a.7.7,0,0,1,.55.35l1,1.23a.48.48,0,0,1-.06.55l-.9,1.14A.85.85,0,0,1,24,10.07Zm-1.72-.4,1.7,0a.52.52,0,0,0,.42-.17l.92-1.16a.14.14,0,0,0,0-.12l-1-1.2a.58.58,0,0,0-.14-.16.68.68,0,0,1,0,.19.39.39,0,0,1,0,.1l0,0Zm0-2.78.85,1.05.74-1s0-.06,0-.07,0,0-.13-.06Z"/></g><g id="_编组_10" data-name="&lt;编组&gt;"><path id="_复合路径_7" data-name="&lt;复合路径&gt;" class="cls-1" d="M18.17,10.33l1,1.23a.55.55,0,0,0,.45.29H20l2,0-1.18-1.46a.23.23,0,0,1-.05-.22L22,8.54l-2.2,0h0a.74.74,0,0,0-.61.28l-.9,1.14A.34.34,0,0,0,18.17,10.33Zm3.52,1.34-1.72,0a.27.27,0,0,1-.21-.12.23.23,0,0,1,0-.16v0l.85-1.1a.27.27,0,0,0,.07.14ZM18.32,10l.91-1.14a.58.58,0,0,1,.52-.23l1.93,0-2,2.64v0l0,.07a.28.28,0,0,0,0,.18h0a.31.31,0,0,0,.06.13h-.1s-.17,0-.33-.24l-1-1.22A.24.24,0,0,1,18.32,10Z"/><path id="_复合路径_8" data-name="&lt;复合路径&gt;" class="cls-1" d="M19.58,12a.68.68,0,0,1-.54-.35l-1-1.23a.45.45,0,0,1,.06-.55L19,8.7a.91.91,0,0,1,.71-.32h0l2.43,0-1.34,1.75a.12.12,0,0,0,0,.09l1.34,1.66L19.59,12Zm1-1.46-.73,1s0,.06,0,.07,0,0,.13.06l1.44,0Zm-.87-1.76a.5.5,0,0,0-.4.18l-.91,1.15c-.05.06,0,.11,0,.12l.95,1.2a.47.47,0,0,0,.15.16.42.42,0,0,1,0-.19l0-.1,0,0,1.88-2.46-1.69,0Z"/></g><g id="_编组_11" data-name="&lt;编组&gt;"><path id="_复合路径_9" data-name="&lt;复合路径&gt;" class="cls-1" d="M41.16,4.86H2.49V0H41.16ZM3.43,3.92h36.8v-3H3.43Z"/></g></g></g></g></svg>