<svg id="图层_1" data-name="图层 1" xmlns="http://www.w3.org/2000/svg" viewBox="0 0 33.47 44.08"><defs><style>.cls-1{fill:#999;}.cls-2{fill:none;}</style></defs><title>nazhong1</title><rect id="_矩形_" data-name="&lt;矩形&gt;" class="cls-1" x="14.28" y="15.16" width="13.96" height="0.92"/><rect id="_矩形_2" data-name="&lt;矩形&gt;" class="cls-1" x="11.38" y="18.63" width="20.15" height="0.99"/><rect id="_矩形_3" data-name="&lt;矩形&gt;" class="cls-1" x="11.38" y="20.37" width="20.15" height="0.99"/><rect id="_矩形_4" data-name="&lt;矩形&gt;" class="cls-1" x="11.38" y="22.1" width="20.15" height="0.99"/><rect id="_矩形_5" data-name="&lt;矩形&gt;" class="cls-1" x="11.38" y="23.84" width="20.15" height="0.99"/><rect id="_矩形_6" data-name="&lt;矩形&gt;" class="cls-1" x="11.38" y="27.31" width="20.15" height="0.99"/><rect id="_矩形_7" data-name="&lt;矩形&gt;" class="cls-1" x="11.38" y="29.04" width="20.15" height="0.99"/><rect id="_矩形_8" data-name="&lt;矩形&gt;" class="cls-1" x="11.38" y="30.78" width="20.15" height="0.99"/><rect id="_矩形_9" data-name="&lt;矩形&gt;" class="cls-1" x="11.38" y="32.51" width="20.15" height="0.99"/><rect id="_矩形_10" data-name="&lt;矩形&gt;" class="cls-1" x="11.38" y="35.12" width="20.15" height="0.99"/><rect id="_矩形_11" data-name="&lt;矩形&gt;" class="cls-1" x="11.38" y="36.85" width="20.15" height="0.99"/><polygon id="_路径_" data-name="&lt;路径&gt;" class="cls-2" points="15.47 9.45 14.75 8.43 8.78 8.43 8.78 14.56 9.19 14.56 9.19 9.45 15.47 9.45"/><polygon id="_路径_2" data-name="&lt;路径&gt;" class="cls-2" points="9.99 14.56 11.06 14.56 9.99 14.56 9.99 43.33 32.66 43.33 32.66 10.2 16.01 10.2 16.69 11.15 16.01 10.2 9.99 10.2 9.99 14.56"/><polygon id="_路径_3" data-name="&lt;路径&gt;" class="cls-1" points="15.47 9.45 16.01 10.2 32.66 10.2 32.66 43.33 9.99 43.33 9.99 14.56 9.19 14.56 9.19 44.08 33.47 44.08 33.47 9.45 15.47 9.45"/><path id="_复合路径_" data-name="&lt;复合路径&gt;" class="cls-1" d="M579.32,370l-6.53-11a1,1,0,0,0-1.94,0l-6.52,11c-.67,1.19-.18,2.13,1.14,2.13h12.64c1.39,0,1.87-.94,1.21-2.13Zm-1,1.5H565.35c-.66,0-.9-.5-.54-1.06l6.65-11.15c.18-.38.54-.38.79,0l6.65,11.15c.3.56.05,1.06-.61,1.06Zm0,0" transform="translate(-564.03 -358.35)"/><path id="_复合路径_2" data-name="&lt;复合路径&gt;" class="cls-1" d="M571.82,362.71a.61.61,0,0,0-.6.62v3.76a.58.58,0,0,0,.6.63.62.62,0,0,0,.6-.63v-3.76a.57.57,0,0,0-.6-.62Zm0,0" transform="translate(-564.03 -358.35)"/><path id="_复合路径_3" data-name="&lt;复合路径&gt;" class="cls-1" d="M572.42,369.6a.6.6,0,1,1-.6-.63.61.61,0,0,1,.6.63Z" transform="translate(-564.03 -358.35)"/></svg>