<svg xmlns="http://www.w3.org/2000/svg" viewBox="0 0 42.19 39.38"><defs><style>.cls-1{fill:none;}.cls-2{fill:#999;}</style></defs><title>资源 3</title><g id="图层_2" data-name="图层 2"><g id="图层_1-2" data-name="图层 1"><g id="_编组_" data-name="&lt;编组&gt;"><polygon id="_路径_" data-name="&lt;路径&gt;" class="cls-1" points="32.97 9.32 18.15 2.1 12.69 4.74 27.5 11.96 32.97 9.32"/><polygon id="_路径_2" data-name="&lt;路径&gt;" class="cls-1" points="2 29.42 17.08 36.78 17.12 18.22 2.04 10.86 2 29.42"/><polygon id="_路径_3" data-name="&lt;路径&gt;" class="cls-1" points="10.4 5.84 3.31 9.26 18.12 16.48 25.21 13.06 10.4 5.84"/><path id="_复合路径_" data-name="&lt;复合路径&gt;" class="cls-2" d="M19.08,36.78l0-18.56,7.09-3.43v4.86a1,1,0,0,0,2,0V13.83l6.07-2.93,0,9.58a10.62,10.62,0,0,1,2,.17l0-11.3s0,0,0,0a1,1,0,0,0-.1-.44,1,1,0,0,0-.67-.53L18.6.1a1,1,0,0,0-.88,0L.61,8.35A1,1,0,0,0,0,9.21L0,30.05a1,1,0,0,0,.56.9l17.08,8.32h0l.07,0h0l.07,0h0l.08,0h.37l.08,0h0a.13.13,0,0,0,.08,0h0l9-4.35a9.77,9.77,0,0,1-1.06-1.72ZM18.15,2.1,33,9.32,27.5,12,12.69,4.74ZM17.08,36.78,2,29.42,2,10.86l15.08,7.36Zm1-20.3L3.31,9.26,10.4,5.84l14.81,7.22Z"/></g><path id="_复合路径_2" data-name="&lt;复合路径&gt;" class="cls-2" d="M34.65,21.69a7.55,7.55,0,1,0,7.54,7.54A7.54,7.54,0,0,0,34.65,21.69Zm3.46,8.81H31.19V28h6.92Z"/></g></g></svg>