<svg xmlns="http://www.w3.org/2000/svg" viewBox="0 0 21.3 21.3"><path id="_复合路径_" data-name="&lt;复合路径&gt;" class="cls-1" d="M10.65,1.07a9.59,9.59,0,1,1-9.58,9.58,9.6,9.6,0,0,1,9.58-9.58m0-1.07A10.65,10.65,0,1,0,21.3,10.65,10.65,10.65,0,0,0,10.65,0Z"/><path id="_复合路径_2" data-name="&lt;复合路径&gt;" class="cls-1" d="M13.14,5.53A1.78,1.78,0,0,0,11.36,7.3V14a1.78,1.78,0,1,0,3.55,0V7.3a1.77,1.77,0,0,0-1.77-1.77ZM13.85,14a.71.71,0,1,1-1.42,0V7.3a.71.71,0,1,1,1.42,0Z"/><path id="_复合路径_3" data-name="&lt;复合路径&gt;" class="cls-1" d="M8.17,5.53A1.78,1.78,0,0,0,6.39,7.3V14a1.78,1.78,0,1,0,3.55,0V7.3A1.77,1.77,0,0,0,8.17,5.53ZM8.88,14a.71.71,0,0,1-1.42,0V7.3a.71.71,0,1,1,1.42,0Z"/></svg>