<svg xmlns="http://www.w3.org/2000/svg" viewBox="0 0 50.02 42.1" width='64' height='64'><title>资源 5</title><g id="图层_2" data-name="图层 2"><g id="menu_Nav_上边菜单" data-name="menu Nav 上边菜单"><g id="_编组_" data-name="&lt;编组&gt;" class="cls-1"><path id="_复合路径_" data-name="&lt;复合路径&gt;" class="cls-2" d="M34.77,4.34a6.55,6.55,0,1,0,6.55,6.55A6.55,6.55,0,0,0,34.77,4.34ZM33.1,14.18V7.6l5.13,3.29Z"/><circle id="_路径_" data-name="&lt;路径&gt;" class="cls-2" cx="8.38" cy="6.89" r="4.05"/><path id="_矩形_" data-name="&lt;矩形&gt;" class="cls-2" d="M3.93,12.38h8.9a.71.71,0,0,1,.71.71V29.48a0,0,0,0,1,0,0H3.22a0,0,0,0,1,0,0V13.09a.71.71,0,0,1,.71-.71Z"/><path id="_矩形_2" data-name="&lt;矩形&gt;" class="cls-2" d="M3.22,24.9H8a0,0,0,0,1,0,0V40.21A1.89,1.89,0,0,1,6.11,42.1h-1a1.89,1.89,0,0,1-1.89-1.89V24.9a0,0,0,0,1,0,0Z"/><rect id="_矩形_3" data-name="&lt;矩形&gt;" class="cls-2" x="1.25" y="12.33" width="3.41" height="17.2" rx="1.35" ry="1.35" transform="translate(3.67 -0.2) rotate(9.98)"/><path id="_矩形_4" data-name="&lt;矩形&gt;" class="cls-2" d="M8.76,24.9h4.78a0,0,0,0,1,0,0V40.21a1.89,1.89,0,0,1-1.89,1.89h-1a1.89,1.89,0,0,1-1.89-1.89V24.9a0,0,0,0,1,0,0Z"/><rect id="_矩形_5" data-name="&lt;矩形&gt;" class="cls-2" x="14.12" y="11.11" width="3.59" height="12.9" rx="1.42" ry="1.42" transform="translate(-7.76 16.56) rotate(-45.4)"/><rect id="_矩形_6" data-name="&lt;矩形&gt;" class="cls-2" x="19.23" y="14.92" width="3.59" height="8.42" rx="1.42" ry="1.42" transform="translate(22.16 47.52) rotate(-134.6)"/><rect id="_矩形_7" data-name="&lt;矩形&gt;" class="cls-2" x="24.5" y="12.9" width="0.52" height="4.99" rx="0.21" ry="0.21" transform="translate(31.19 43.84) rotate(-134.6)"/><path id="_路径_2" data-name="&lt;路径&gt;" class="cls-2" d="M47.89,0H21.65a2.25,2.25,0,0,0-2.13,2.33V15.17l1.14-.86v-12a1,1,0,0,1,1-1.08H47.89a1,1,0,0,1,1,1.08V21.45a1,1,0,0,1-1,1.08H21.73l-1.18.9a1.94,1.94,0,0,0,1.1.35H47.89A2.25,2.25,0,0,0,50,21.45V2.33A2.25,2.25,0,0,0,47.89,0Z"/></g></g></g></svg>