<svg id="图层_1" data-name="图层 1" xmlns="http://www.w3.org/2000/svg" viewBox="0 0 22.68 22.68"><path id="_复合路径_" data-name="&lt;复合路径&gt;" class="cls-1" d="M628,368.56l-1.59-.27a8.63,8.63,0,0,0-.64-1.54l.94-1.31a1.4,1.4,0,0,0-.15-1.81l-1.41-1.41a1.38,1.38,0,0,0-1-.41,1.35,1.35,0,0,0-.81.26L622,363a8.56,8.56,0,0,0-1.6-.66l-.27-1.58a1.4,1.4,0,0,0-1.38-1.17h-2a1.42,1.42,0,0,0-1.39,1.17l-.27,1.61a9.48,9.48,0,0,0-1.54.65l-1.3-.93a1.4,1.4,0,0,0-.82-.26,1.37,1.37,0,0,0-1,.41L609,363.66a1.4,1.4,0,0,0-.16,1.8l1,1.33a9,9,0,0,0-.63,1.55l-1.57.27a1.4,1.4,0,0,0-1.17,1.38v2a1.4,1.4,0,0,0,1.17,1.38l1.61.27a8.67,8.67,0,0,0,.65,1.54l-.94,1.3a1.41,1.41,0,0,0,.16,1.81l1.41,1.41a1.4,1.4,0,0,0,1.8.15l1.33-1a8.94,8.94,0,0,0,1.5.62l.26,1.59a1.4,1.4,0,0,0,1.38,1.17h2a1.41,1.41,0,0,0,1.39-1.17l.27-1.59a9.43,9.43,0,0,0,1.54-.64l1.31.94a1.4,1.4,0,0,0,.82.26,1.43,1.43,0,0,0,1-.41l1.41-1.42a1.4,1.4,0,0,0,.15-1.8l-.94-1.32a9,9,0,0,0,.64-1.54l1.59-.27a1.39,1.39,0,0,0,1.17-1.38v-2a1.39,1.39,0,0,0-1.16-1.38Zm-.1,3.38a.13.13,0,0,1-.11.12l-2,.33a.65.65,0,0,0-.51.47,7.53,7.53,0,0,1-.82,2,.64.64,0,0,0,0,.69l1.17,1.65a.12.12,0,0,1,0,.16l-1.41,1.42a.13.13,0,0,1-.09,0l-.07,0-1.65-1.17a.62.62,0,0,0-.69,0,7.56,7.56,0,0,1-2,.83.63.63,0,0,0-.47.51l-.33,2a.12.12,0,0,1-.13.1h-2a.12.12,0,0,1-.12-.1l-.34-2a.62.62,0,0,0-.46-.51,8.09,8.09,0,0,1-2-.8.62.62,0,0,0-.32-.09.63.63,0,0,0-.37.12l-1.66,1.18a.09.09,0,0,1-.07,0,.16.16,0,0,1-.09,0L610,377.4a.12.12,0,0,1,0-.16l1.16-1.64a.64.64,0,0,0,0-.7,7.49,7.49,0,0,1-.83-2,.66.66,0,0,0-.51-.47l-2-.34a.12.12,0,0,1-.1-.12v-2a.12.12,0,0,1,.1-.12l2-.33a.64.64,0,0,0,.51-.48,8,8,0,0,1,.81-2,.62.62,0,0,0,0-.69l-1.18-1.66a.14.14,0,0,1,0-.16l1.42-1.41a.12.12,0,0,1,.09,0,.09.09,0,0,1,.07,0l1.63,1.16a.64.64,0,0,0,.7,0,7.63,7.63,0,0,1,2-.83.66.66,0,0,0,.47-.51l.34-2a.12.12,0,0,1,.13-.1h2a.12.12,0,0,1,.12.1l.34,2a.62.62,0,0,0,.47.51,7.51,7.51,0,0,1,2,.84.64.64,0,0,0,.7,0L624,363.1l.07,0a.14.14,0,0,1,.09,0l1.41,1.41a.12.12,0,0,1,0,.16l-1.17,1.65a.62.62,0,0,0,0,.69,7.53,7.53,0,0,1,.82,2,.66.66,0,0,0,.52.47l2,.33a.12.12,0,0,1,.1.12v2Zm0,0" transform="translate(-606.45 -359.6)"/><path id="_复合路径_2" data-name="&lt;复合路径&gt;" class="cls-1" d="M617.79,366.25a4.89,4.89,0,1,0,4.89,4.89,4.89,4.89,0,0,0-4.89-4.89Zm0,8.5a3.61,3.61,0,1,1,3.61-3.61,3.62,3.62,0,0,1-3.61,3.61Zm0,0" transform="translate(-606.45 -359.6)"/></svg>