<svg xmlns="http://www.w3.org/2000/svg" viewBox="0 0 32.32 36.49"><defs><style>.cls-1{opacity:0.2;}.cls-2{fill:#666;}.cls-3{fill:#898989;}</style></defs><title>资源 1</title><g id="图层_2" data-name="图层 2"><g id="图层_1-2" data-name="图层 1"><g id="_编组_" data-name="&lt;编组&gt;" class="cls-1"><g id="_编组_2" data-name="&lt;编组&gt;"><path id="_路径_" data-name="&lt;路径&gt;" class="cls-2" d="M30.56,13.48V35.62l.87-.86H4.25l.87.86V22a.87.87,0,0,0-1.73,0V35.62a.88.88,0,0,0,.86.87H31.43a.88.88,0,0,0,.86-.87V13.48a.87.87,0,0,0-1.73,0Z"/></g><g id="_编组_3" data-name="&lt;编组&gt;"><path id="_路径_2" data-name="&lt;路径&gt;" class="cls-2" d="M5.12,8.65V.9l-.87.86H22.71l-.61-.25L30.82,9.4c.82.75,2-.47,1.22-1.22l-4.41-4L24.58,1.43A6.74,6.74,0,0,0,23,.1,4.42,4.42,0,0,0,21.54,0H4.25A.88.88,0,0,0,3.39.9V8.65a.87.87,0,0,0,1.73,0Z"/></g><g id="_编组_4" data-name="&lt;编组&gt;"><path id="_路径_3" data-name="&lt;路径&gt;" class="cls-3" d="M30.38,8.92H24.09a1.38,1.38,0,0,1-1.38-1.38V2a.48.48,0,0,1,.8-.35l7.14,6.58A.41.41,0,0,1,30.38,8.92Z"/><g id="_编组_5" data-name="&lt;编组&gt;"><path id="_路径_4" data-name="&lt;路径&gt;" class="cls-2" d="M30.38,7.84H25c-.44,0-1.1.17-1.18-.38a18.72,18.72,0,0,1,0-2.7V2.85c0-.2,0-.41,0-.61,0-.51.14.07-.18.21l-.55.15c-.26,0-.42-.33-.22-.12a2.18,2.18,0,0,0,.22.21l.8.73,2.46,2.26,2.41,2.23.84.77a2.09,2.09,0,0,0,.22.2s0,0,.07.06l0,0q.42.39.21-1.08c-1.37.24-.79,2.33.57,2.08a1.49,1.49,0,0,0,1-2.24,2.45,2.45,0,0,0-.49-.53l-2-1.85C27.58,3.91,26,2.46,24.46,1a2,2,0,0,0-.88-.56A1.58,1.58,0,0,0,21.63,2c-.06.86,0,1.76,0,2.63s0,1.91,0,2.86A2.53,2.53,0,0,0,24.21,10c2.06,0,4.11,0,6.17,0A1.08,1.08,0,0,0,30.38,7.84Z"/></g></g><g id="_编组_6" data-name="&lt;编组&gt;"><polygon id="_路径_5" data-name="&lt;路径&gt;" class="cls-3" points="21.36 18.26 10.36 9.57 10.36 14.7 1.08 14.7 1.08 22.16 10.36 22.16 10.36 27.88 21.36 18.26"/><g id="_编组_7" data-name="&lt;编组&gt;"><path id="_路径_6" data-name="&lt;路径&gt;" class="cls-2" d="M22.13,17.5,12.51,9.91,11.12,8.8a1.1,1.1,0,0,0-1.85.77V14.7l1.09-1.08H1.08A1.1,1.1,0,0,0,0,14.7v7.46a1.1,1.1,0,0,0,1.08,1.08h9.28L9.27,22.16v5.72a1.1,1.1,0,0,0,1.85.76l9.62-8.4L22.13,19c1.05-.91-.49-2.44-1.53-1.52L11,25.9,9.59,27.11l1.85.77V22.16a1.1,1.1,0,0,0-1.08-1.08H1.08l1.08,1.08V14.7L1.08,15.78h9.28a1.1,1.1,0,0,0,1.08-1.08V9.57l-1.85.76,9.61,7.59L20.6,19a1.11,1.11,0,0,0,1.53,0A1.08,1.08,0,0,0,22.13,17.5Z"/></g></g></g></g></g></svg>