<svg xmlns="http://www.w3.org/2000/svg" viewBox="0 0 37.91 37.91"><title>资源 2</title><g id="图层_2" data-name="图层 2"><g id="menu_Nav_上边菜单" data-name="menu Nav 上边菜单"><g id="_编组_" data-name="&lt;编组&gt;"><path id="_复合路径_" data-name="&lt;复合路径&gt;" class="cls-1" d="M34.75,0H3.16A3.17,3.17,0,0,0,0,3.16v9.48a3.16,3.16,0,0,0,3.16,3.15H5.83l.57,1.15a.82.82,0,0,0,1.41,0l.57-1.15h9l.95,1.27a.82.82,0,0,0,1.26,0l1-1.27h9l.57,1.15a.81.81,0,0,0,.71.43.78.78,0,0,0,.7-.43l.58-1.15h2.67a3.16,3.16,0,0,0,3.16-3.15V3.16A3.17,3.17,0,0,0,34.75,0Zm1.58,12.64a1.57,1.57,0,0,1-1.58,1.57H31.59a.8.8,0,0,0-.71.44l-.08.17-.09-.17a.77.77,0,0,0-.7-.44H20.14a.81.81,0,0,0-.64.32l-.55.74-.55-.74a.79.79,0,0,0-.63-.32H7.9a.79.79,0,0,0-.71.44l-.08.17L7,14.65a.77.77,0,0,0-.7-.44H3.16a1.57,1.57,0,0,1-1.58-1.57V3.16A1.58,1.58,0,0,1,3.16,1.58H34.75a1.58,1.58,0,0,1,1.58,1.58Z"/><path id="_复合路径_2" data-name="&lt;复合路径&gt;" class="cls-1" d="M22.9,25.27A3.95,3.95,0,1,0,19,29.22,4,4,0,0,0,22.9,25.27Zm-6.32,0A2.37,2.37,0,1,1,19,27.64,2.38,2.38,0,0,1,16.58,25.27Z"/><path id="_复合路径_3" data-name="&lt;复合路径&gt;" class="cls-1" d="M34.75,22.9a3.95,3.95,0,1,0-3.95,4A4,4,0,0,0,34.75,22.9Zm-6.32,0a2.37,2.37,0,1,1,2.37,2.37A2.37,2.37,0,0,1,28.43,22.9Z"/><path id="_复合路径_4" data-name="&lt;复合路径&gt;" class="cls-1" d="M11.06,22.9a4,4,0,1,0-3.95,4A4,4,0,0,0,11.06,22.9Zm-6.32,0a2.37,2.37,0,1,1,2.37,2.37A2.37,2.37,0,0,1,4.74,22.9Z"/><path id="_路径_" data-name="&lt;路径&gt;" class="cls-1" d="M30.8,4.74H7.11a.79.79,0,0,0,0,1.58H30.8a.79.79,0,0,0,0-1.58Z"/><path id="_路径_2" data-name="&lt;路径&gt;" class="cls-1" d="M26.06,9.48H7.11a.79.79,0,1,0,0,1.58h19a.79.79,0,0,0,0-1.58Z"/><path id="_复合路径_5" data-name="&lt;复合路径&gt;" class="cls-1" d="M36.2,29.27a11,11,0,0,0-5.4-1.63,11,11,0,0,0-5.4,1.63,3.54,3.54,0,0,0-1.64,2.58A12.48,12.48,0,0,0,19,30.8a12.48,12.48,0,0,0-4.81,1.05,3.5,3.5,0,0,0-1.63-2.58,11,11,0,0,0-5.4-1.63,11,11,0,0,0-5.4,1.63A3.6,3.6,0,0,0,0,32.41v.51a1.77,1.77,0,0,0,1.69,1.83h9.48a3.18,3.18,0,0,0-.11.82v.51a1.82,1.82,0,0,0,1.8,1.83H25a1.82,1.82,0,0,0,1.81-1.83v-.51a3.68,3.68,0,0,0-.11-.82h9.47a1.77,1.77,0,0,0,1.7-1.83v-.51A3.62,3.62,0,0,0,36.2,29.27ZM1.69,33.17a.28.28,0,0,1-.11-.25v-.51a2,2,0,0,1,.93-1.78,9.41,9.41,0,0,1,4.6-1.41,9.48,9.48,0,0,1,4.6,1.41,2.07,2.07,0,0,1,.93,1.78v.23a3.54,3.54,0,0,0-.63.53Zm23.58,2.91a.24.24,0,0,1-.23.25H12.86a.24.24,0,0,1-.22-.25v-.51a2,2,0,0,1,1-1.76A11.63,11.63,0,0,1,19,32.38a11.59,11.59,0,0,1,5.26,1.43,2,2,0,0,1,1.06,1.76Zm11.06-3.16a.28.28,0,0,1-.12.25H25.89a3.54,3.54,0,0,0-.62-.53v-.23a2,2,0,0,1,.93-1.78,9.41,9.41,0,0,1,4.6-1.41,9.44,9.44,0,0,1,4.6,1.41,2.07,2.07,0,0,1,.93,1.78Z"/></g></g></g></svg>