<svg xmlns="http://www.w3.org/2000/svg" viewBox="0 0 38.8 24.25" width="64" height="64"><title>资源 12</title><g id="图层_2" data-name="图层 2"><g id="Estrutura_Menu左边菜单" data-name="Estrutura Menu左边菜单"><g id="Menu_Lateral" data-name="Menu Lateral"><g id="_编组_" data-name="&lt;编组&gt;" class="cls-1"><path id="_路径_" data-name="&lt;路径&gt;" class="cls-2" d="M19.4,24.25a6.25,6.25,0,0,1-2.87-.94c-.72-.48-4.34-3.2-7.35-5.72-.5-.42-1.25-1.2-2-1.95-.53-.56-1-1.07-1.27-1.28a.81.81,0,0,1,1-1.24c.27.24.81.79,1.39,1.4S9.79,16,10.22,16.35c3.07,2.58,6.63,5.23,7.2,5.61a4.67,4.67,0,0,0,2,.67c.76,0,.83-.19.86-.27a.78.78,0,0,1,.56-.51.81.81,0,0,1,.74.19.87.87,0,0,0,.93.14,1.52,1.52,0,0,0,1-1.24.81.81,0,0,1,1.36-.51,1.26,1.26,0,0,0,1.26,0,1,1,0,0,0,.62-.91.81.81,0,0,1,1.26-.76.9.9,0,0,0,1-.19.94.94,0,0,0,.24-1.21c-.61-1.27-3.3-3.45-5.68-5.37C22.19,10.9,20.94,9.89,20,9l-.56.24a4.06,4.06,0,0,1-1.22.39,4,4,0,0,1-4.74,1.63A2,2,0,0,1,12.1,9.82c-.39-1.64,1.11-3.88,2.22-5,2.9-2.9,4.94-4,8.64-2.34C26.14,3.92,29.33,5,29.36,5a.81.81,0,1,1-.53,1.53S25.55,5.42,22.3,4c-2.86-1.28-4.21-.62-6.84,2-1.11,1.1-2,2.76-1.79,3.47,0,.1.07.21.32.29.79.27,2,.41,3.12-1.3a.78.78,0,0,1,.59-.35,2.8,2.8,0,0,0,1.09-.3c.26-.12.6-.27,1.14-.47a.83.83,0,0,1,.85.19c.88.89,2.27,2,3.74,3.2,2.63,2.13,5.35,4.33,6.12,5.92A2.57,2.57,0,0,1,30,19.77a2.62,2.62,0,0,1-1.86.66,2.68,2.68,0,0,1-1.35,1.41,3.1,3.1,0,0,1-2,.3,3.2,3.2,0,0,1-1.69,1.55,2.54,2.54,0,0,1-1.84,0A2.74,2.74,0,0,1,19.4,24.25Z"/><path id="_路径_2" data-name="&lt;路径&gt;" class="cls-2" d="M16.17,4.85H8.89a.81.81,0,1,1,0-1.62h7.28a.81.81,0,0,1,0,1.62Z"/><path id="_路径_3" data-name="&lt;路径&gt;" class="cls-2" d="M30,17.75a.81.81,0,0,1-.67-.35.82.82,0,0,1,.22-1.13l2.36-1.58a.8.8,0,0,1,1.12.22A.81.81,0,0,1,32.78,16l-2.36,1.59A.84.84,0,0,1,30,17.75Z"/><path id="_路径_4" data-name="&lt;路径&gt;" class="cls-2" d="M27.48,20.21A.81.81,0,0,1,27,20c-.85-.67-4.51-4.49-4.93-4.92a.8.8,0,0,1,0-1.14.81.81,0,0,1,1.14,0c1.6,1.67,4.19,4.32,4.77,4.77a.81.81,0,0,1,.13,1.14A.82.82,0,0,1,27.48,20.21Z"/><path id="_路径_5" data-name="&lt;路径&gt;" class="cls-2" d="M24.25,21.82a.76.76,0,0,1-.5-.17c-1.2-1-4.11-4.1-4.14-4.13a.81.81,0,0,1,1.19-1.09c.55.6,3,3.18,4,4a.81.81,0,0,1,.12,1.13A.8.8,0,0,1,24.25,21.82Z"/><path id="_路径_6" data-name="&lt;路径&gt;" class="cls-2" d="M21,23.44a.78.78,0,0,1-.52-.19c-1.2-1-3.45-3.4-4.12-4.11A.81.81,0,0,1,17.57,18c.46.49,2.82,3,4,4A.81.81,0,0,1,21,23.44Z"/><path id="_复合路径_" data-name="&lt;复合路径&gt;" class="cls-2" d="M5.66,16.17H.81A.81.81,0,0,1,0,15.36V.81A.8.8,0,0,1,.25.22.85.85,0,0,1,.86,0c1.66.1,7.2.52,8.59,1.84a.8.8,0,0,1,.25.65C9.33,6.7,6.54,15.25,6.43,15.61A.82.82,0,0,1,5.66,16.17Zm-4-1.62H5.07A85.34,85.34,0,0,0,8,2.82,25,25,0,0,0,1.62,1.67Z"/><path id="_复合路径_2" data-name="&lt;复合路径&gt;" class="cls-2" d="M38,17.78H33.14a.81.81,0,0,1-.78-.59C31.76,15,28.63,6.08,27.63,4.47a.85.85,0,0,1-.09-.66.84.84,0,0,1,.44-.5c.14-.07,3.66-1.69,10-1.69a.8.8,0,0,1,.81.8V17A.81.81,0,0,1,38,17.78Zm-4.24-1.61h3.43V3.24a26.34,26.34,0,0,0-7.73,1.23C30.72,7.16,33,13.67,33.75,16.17Z"/></g></g></g></g></svg>