<svg xmlns="http://www.w3.org/2000/svg" viewBox="0 0 127.24 93.24"><defs><style>.cls-1{fill:#666;}</style></defs><title>资源 1</title><g id="图层_2" data-name="图层 2"><g id="图层_1-2" data-name="图层 1"><g id="_编组_" data-name="&lt;编组&gt;"><g id="_编组_2" data-name="&lt;编组&gt;"><path id="_复合路径_" data-name="&lt;复合路径&gt;" class="cls-1" d="M122.22,93.24H5a5,5,0,0,1-5-5V18.63a5,5,0,0,1,5-5h117.2a5,5,0,0,1,5,5V88.22A5,5,0,0,1,122.22,93.24ZM5,17.45a1.18,1.18,0,0,0-1.18,1.18V88.22A1.18,1.18,0,0,0,5,89.4h117.2a1.17,1.17,0,0,0,1.17-1.18V18.63a1.17,1.17,0,0,0-1.17-1.18Z"/></g><g id="_编组_3" data-name="&lt;编组&gt;"><path id="_复合路径_2" data-name="&lt;复合路径&gt;" class="cls-1" d="M86,79a25.62,25.62,0,1,1,25.62-25.62A25.64,25.64,0,0,1,86,79Zm0-47.39a21.78,21.78,0,1,0,21.78,21.77A21.8,21.8,0,0,0,86,31.65Z"/></g><g id="_编组_4" data-name="&lt;编组&gt;"><ellipse id="_路径_" data-name="&lt;路径&gt;" class="cls-1" cx="95.21" cy="49.07" rx="5.76" ry="4.19"/></g><g id="_编组_5" data-name="&lt;编组&gt;"><path id="_复合路径_3" data-name="&lt;复合路径&gt;" class="cls-1" d="M112.92,17.29H61.82L71.59,0h30.27ZM68.4,13.45h37.5L99.75,3.84H73.83Z"/></g><g id="_编组_6" data-name="&lt;编组&gt;"><path id="_复合路径_4" data-name="&lt;复合路径&gt;" class="cls-1" d="M22.7,16.83H16.44a4,4,0,0,1-4-4V10a4,4,0,0,1,4-4H22.7a4,4,0,0,1,4,4v2.84A4,4,0,0,1,22.7,16.83ZM16.44,8.57A1.42,1.42,0,0,0,15,10v2.84a1.42,1.42,0,0,0,1.42,1.43H22.7a1.42,1.42,0,0,0,1.42-1.43V10A1.42,1.42,0,0,0,22.7,8.57Z"/></g></g></g></g></svg>